<svg t="1623665869963" class="icon" viewBox="0 0 1142 1024" version="1.1" xmlns="http://www.w3.org/2000/svg" p-id="3729"
  width="32" height="32">
  <path
    d="M1052.632615 0H89.521231C40.172308 0.157538 0.118154 41.156923 0 91.766154v840.467692c0.157538 50.609231 40.172308 91.608615 89.521231 91.766154h963.111384c49.388308-0.157538 89.403077-41.156923 89.521231-91.766154V91.766154C1141.996308 41.156923 1101.981538 0.157538 1052.632615 0z m-655.753846 170.338462a37.021538 37.021538 0 0 1 51.318154-14.060308 38.990769 38.990769 0 0 1 13.745231 52.578461 37.021538 37.021538 0 0 1-51.278769 14.099693 38.4 38.4 0 0 1-17.526154-23.394462 39.345231 39.345231 0 0 1 3.780923-29.223384z m-102.793846-14.060308a36.864 36.864 0 0 1 45.292308 6.104615 39.227077 39.227077 0 0 1 5.986461 46.473846 37.179077 37.179077 0 0 1-42.259692 17.92 38.360615 38.360615 0 0 1-27.844923-37.179077c0-13.784615 7.168-26.466462 18.786461-33.319384z m-117.129846 0a36.864 36.864 0 0 1 45.331692 6.104615 39.227077 39.227077 0 0 1 5.986462 46.473846 37.179077 37.179077 0 0 1-42.259693 17.92 38.360615 38.360615 0 0 1-27.844923-37.179077c0-13.784615 7.168-26.466462 18.786462-33.319384z m894.385231 721.565538H1071.261538c0 19.377231-7.483077 37.966769-20.873846 51.672616-13.390769 13.745231-31.507692 21.425231-50.412307 21.42523H144.226462c-18.904615 0-37.060923-7.719385-50.412308-21.42523a74.043077 74.043077 0 0 1-20.873846-51.672616V443.864615H72.861538v-99.643077H1071.261538v52.775385h0.07877v480.886154z"
    fill="#42b983" p-id="3730"></path>
  <path
    d="M377.068308 749.174154h-0.039385a36.312615 36.312615 0 0 1-13.981538-4.096L215.315692 675.446154a35.958154 35.958154 0 0 1-20.558769-32.452923 38.360615 38.360615 0 0 1 21.937231-32.728616l150.291692-63.015384a36.745846 36.745846 0 0 1 45.961846 20.48c8.034462 17.841231-1.969231 38.439385-21.93723 48.246154l-73.924924 30.72 73.924924 34.855384c17.604923 7.955692 25.6 29.026462 17.959384 47.143385a35.446154 35.446154 0 0 1-31.901538 20.48m346.899692-1.929846a35.446154 35.446154 0 0 1-31.822769-20.204308 36.273231 36.273231 0 0 1 17.92-47.182769l73.924923-34.816-73.924923-30.72a36.706462 36.706462 0 0 1-19.731693-47.143385 35.052308 35.052308 0 0 1 45.764924-20.48l150.055384 63.527385c12.209231 4.962462 20.164923 17.211077 19.928616 30.72a36.627692 36.627692 0 0 1-19.928616 32.807384l-148.086154 69.435077a18.747077 18.747077 0 0 1-13.981538 4.056616h-0.118154m-216.339692 27.017846a21.070769 21.070769 0 0 1-9.058462-2.048 36.233846 36.233846 0 0 1-21.937231-45.174154l75.776-237.764923a34.579692 34.579692 0 0 1 43.992616-22.567385 35.997538 35.997538 0 0 1 22.016 45.213539l-75.894154 237.686154a38.990769 38.990769 0 0 1-34.855385 24.654769M984.615385 393.846154H118.153846v411.884308C118.153846 839.286154 142.099692 866.461538 171.716923 866.461538h753.545846c32.768 0 59.352615-30.129231 59.352616-67.347692V393.846154"
    fill="#42b983" p-id="3731"></path>
</svg>